<svg xmlns="http://www.w3.org/2000/svg" viewBox="0 0 616.906 633.755">
  <defs>
    <style>
      .cls-1 {
        fill: #e9ecef;
      }
    </style>
  </defs>
  <g id="Group_21" data-name="Group 21" transform="translate(-166.094 -183)">
    <g id="unlock" transform="translate(367 183)">
      <g id="Group_2" data-name="Group 2">
        <g id="Group_1" data-name="Group 1">
          <path id="Path_1" data-name="Path 1" d="M384,0H128A32,32,0,0,0,96,32V480a32,32,0,0,0,32,32H384a32,32,0,0,0,32-32V32A32,32,0,0,0,384,0Zm10.667,480A10.667,10.667,0,0,1,384,490.667H128A10.667,10.667,0,0,1,117.333,480V32A10.667,10.667,0,0,1,128,21.333H384A10.667,10.667,0,0,1,394.667,32Z"/>
        </g>
      </g>
      <g id="Group_4" data-name="Group 4">
        <g id="Group_3" data-name="Group 3">
          <rect id="Rectangle_1" data-name="Rectangle 1" width="234.667" height="21.333" transform="translate(138.667 85.333)"/>
        </g>
      </g>
      <g id="Group_6" data-name="Group 6">
        <g id="Group_5" data-name="Group 5" transform="translate(138.667 405.333)">
          <rect id="Rectangle_2" data-name="Rectangle 2" width="96" height="21.333" transform="translate(0)"/>
          <rect id="Rectangle_5" data-name="Rectangle 5" width="96" height="21.333" transform="translate(141)"/>
        </g>
      </g>
      <g id="Group_8" data-name="Group 8">
        <g id="Group_7" data-name="Group 7">
          <rect id="Rectangle_3" data-name="Rectangle 3" width="128" height="21.333" transform="translate(170.667 42.667)"/>
        </g>
      </g>
      <g id="Group_10" data-name="Group 10">
        <g id="Group_9" data-name="Group 9">
          <rect id="Rectangle_4" data-name="Rectangle 4" width="21.333" height="21.333" transform="translate(320 42.667)"/>
        </g>
      </g>
    </g>
    <rect id="Rectangle_6" data-name="Rectangle 6" class="cls-1" width="30" height="26" transform="translate(608 671)"/>
    <g id="stethoscope" transform="translate(126.003 261.248)">
      <g id="Group_14" data-name="Group 14" transform="translate(164.432 256.206)">
        <g id="Group_13" data-name="Group 13">
          <path id="Path_2" data-name="Path 2" d="M490.344,236.141c-5.1,0-9.234,3.642-9.234,8.137V396.325c0,67.736-62.531,122.842-139.394,122.842H298.948c-76.863,0-139.394-55.107-139.394-122.841l0-37.327c0-4.494-4.133-8.137-9.234-8.137s-9.234,3.642-9.234,8.136l0,37.327c0,76.71,70.817,139.117,157.861,139.117h42.769c87.044,0,157.861-62.407,157.861-139.118V244.277C499.577,239.783,495.443,236.141,490.344,236.141Z" transform="translate(-141.087 -236.141)"/>
        </g>
      </g>
      <g id="Group_16" data-name="Group 16" transform="translate(40.09 0)">
        <g id="Group_15" data-name="Group 15">
          <path id="Path_3" data-name="Path 3" d="M481.865,257.041c-5.1,0-9.234,3.642-9.234,8.137V416.39c0,52.271-48.255,94.795-107.567,94.795h-42.77c-59.314,0-107.569-42.534-107.569-94.819l-.047-102.787c38.213-6.726,71.119-28.852,88.543-59.733a19.953,19.953,0,0,0-1.173-21.721,23.8,23.8,0,0,0-4.962-5.149c.377-1.376.734-2.759,1.042-4.16l40.7-140.673c.046-.158.085-.317.121-.477,4.942-22.694-11.147-44.755-36.625-50.222l-12.687-2.722c-1.689-6.1-6.22-12.058-13.3-17.3C268.125,5.353,257.7,1.163,248.435.215c-19.807-2.03-37.8,10.523-40.107,27.985s11.943,33.316,31.755,35.344a46.56,46.56,0,0,0,4.744.234,64.466,64.466,0,0,0,25.327-5.505c7.86-3.49,13.631-8.081,16.959-13.343l10.84,2.326c15.818,3.394,25.834,17.033,22.907,31.117L280.166,219.028c-.046.158-.086.317-.121.477-.144.66-.305,1.312-.465,1.964-9.338.238-17.922,4.989-22.008,12.263-12.636,22.489-39.174,37.018-67.607,37.018-28.649,0-54.466-14.03-67.376-36.613-4.276-7.482-12.9-12.38-22.236-12.664-.161-.654-.323-1.31-.467-1.969-.033-.161-.075-.319-.121-.477L59.07,78.375c-2.929-14.084,7.089-27.723,22.905-31.117l10.812-2.32c7.656,12.2,27.333,18.835,42.417,18.835a45.4,45.4,0,0,0,4.644-.228C159.66,61.517,173.9,45.661,171.6,28.2S151.322-1.81,131.495.217c-9.263.949-19.691,5.138-27.9,11.209-7.084,5.239-11.615,11.194-13.3,17.3L77.606,31.445C52.129,36.911,36.039,58.971,40.981,81.667c.034.161.075.319.121.477L81.8,222.818c.308,1.4.664,2.782,1.04,4.157a23.709,23.709,0,0,0-5.088,5.336,19.948,19.948,0,0,0-1.044,21.534c17.3,30.663,49.86,52.695,87.729,59.59l0,27.926c0,4.494,4.133,8.137,9.232,8.137h0c5.1,0,9.234-3.642,9.234-8.136l0-32.012c0-5.569-4.524-10.279-10.756-11.2-34.028-5.021-63.523-24.291-78.9-51.553a5.348,5.348,0,0,1,.3-5.847,7.246,7.246,0,0,1,5.844-3.027l.2,0a7.7,7.7,0,0,1,6.505,3.739c16.069,28.106,48.207,45.567,83.869,45.567,35.4,0,68.429-18.084,84.156-46.071a7.147,7.147,0,0,1,6.187-3.233,7.224,7.224,0,0,1,6.042,2.975,5.354,5.354,0,0,1,.335,5.9c-15.336,27.182-44.711,46.42-78.618,51.507l-.284.025c-6.6.595-11.575,5.451-11.575,11.3l.049,106.938c0,61.256,56.54,111.091,126.036,111.091h42.77c69.5,0,126.035-49.826,126.035-111.071V265.179C491.1,260.686,486.965,257.041,481.865,257.041ZM271.881,34.71c-.4,3.043-4.153,6.418-10.036,9.031-6.278,2.787-13.981,4.217-19.628,3.639-9.7-.993-16.67-8.755-15.543-17.3,1.046-7.938,8.716-13.8,17.573-13.8a20.215,20.215,0,0,1,2.056.105c5.645.578,12.772,3.526,18.158,7.51C269.509,27.624,272.282,31.669,271.881,34.71ZM133.626,16.382c9.685-.983,18.505,5.151,19.631,13.7s-5.845,16.308-15.543,17.3c-11.874,1.212-28.787-6.007-29.666-12.67S121.75,17.6,133.626,16.382Z" transform="translate(-40.09 0)"/>
        </g>
      </g>
      <g id="Group_18" data-name="Group 18" transform="translate(419.986 105.098)">
        <g id="Group_17" data-name="Group 17">
          <path id="Path_4" data-name="Path 4" d="M424.531,96.867c-41.835,0-75.869,29.994-75.869,66.861S382.7,230.59,424.531,230.59,500.4,200.6,500.4,163.728,466.365,96.867,424.531,96.867Zm0,117.447c-31.651,0-57.4-22.693-57.4-50.587s25.751-50.587,57.4-50.587,57.4,22.692,57.4,50.587S456.181,214.314,424.531,214.314Z" transform="translate(-348.662 -96.867)"/>
        </g>
      </g>
      <g id="Group_20" data-name="Group 20" transform="translate(460.661 140.943)">
        <g id="Group_19" data-name="Group 19">
          <path id="Path_5" data-name="Path 5" d="M416.895,129.9c-19.405,0-35.195,13.914-35.195,31.015s15.788,31.015,35.195,31.015,35.193-13.914,35.193-31.015S436.3,129.9,416.895,129.9Zm0,45.756c-9.224,0-16.726-6.613-16.726-14.74s7.5-14.739,16.726-14.739,16.726,6.613,16.726,14.739S426.117,175.661,416.895,175.661Z" transform="translate(-381.7 -129.905)"/>
        </g>
      </g>
    </g>
  </g>
</svg>
