<?xml version="1.0" encoding="iso-8859-1"?>
<!-- Generator: Adobe Illustrator 19.0.0, SVG Export Plug-In . SVG Version: 6.00 Build 0)  -->
<svg version="1.1" id="Capa_1" xmlns="http://www.w3.org/2000/svg" xmlns:xlink="http://www.w3.org/1999/xlink" x="0px" y="0px"
	 viewBox="0 0 512 512" style="enable-background:new 0 0 512 512;" xml:space="preserve">
<g>
	<g>
		<path d="M384,0H128c-17.673,0-32,14.327-32,32v448c0,17.673,14.327,32,32,32h256c17.673,0,32-14.327,32-32V32
			C416,14.327,401.673,0,384,0z M394.667,480c0,5.891-4.776,10.667-10.667,10.667H128c-5.891,0-10.667-4.776-10.667-10.667V32
			c0-5.891,4.776-10.667,10.667-10.667h256c5.891,0,10.667,4.776,10.667,10.667V480z"/>
	</g>
</g>
<g>
	<g>
		<rect x="138.667" y="85.333" width="234.667" height="21.333"/>
	</g>
</g>
<g>
	<g>
		<rect x="138.667" y="405.333" width="234.667" height="21.333"/>
	</g>
</g>
<g>
	<g>
		<rect x="170.667" y="42.667" width="128" height="21.333"/>
	</g>
</g>
<g>
	<g>
		<rect x="320" y="42.667" width="21.333" height="21.333"/>
	</g>
</g>
<g>
	<g>
		<rect x="245.333" y="448" width="21.333" height="21.333"/>
	</g>
</g>
<g>
	<g>
		<path d="M341.333,213.333H170.667c-5.891,0-10.667,4.776-10.667,10.667v117.333c0,17.673,14.327,32,32,32h128
			c17.673,0,32-14.327,32-32V224C352,218.109,347.224,213.333,341.333,213.333z M330.667,341.333
			c0,5.891-4.776,10.667-10.667,10.667H192c-5.891,0-10.667-4.776-10.667-10.667V234.667h149.333V341.333z"/>
	</g>
</g>
<g>
	<g>
		<path d="M298.667,138.667h-85.333C201.658,138.921,192.254,148.325,192,160v64h21.333v-63.168
			c0.096-0.384,0.192-0.779,0.096-0.853h84.576c0,0,0.555,0.16,0.661,0.096v21.259H320V160
			C319.901,148.259,310.408,138.765,298.667,138.667z"/>
	</g>
</g>
<g>
	<g>
		<rect x="138.667" y="256" width="234.667" height="21.333"/>
	</g>
</g>
<g>
	<g>
		<rect x="245.333" y="298.667" width="21.333" height="21.333"/>
	</g>
</g>
<g>
</g>
<g>
</g>
<g>
</g>
<g>
</g>
<g>
</g>
<g>
</g>
<g>
</g>
<g>
</g>
<g>
</g>
<g>
</g>
<g>
</g>
<g>
</g>
<g>
</g>
<g>
</g>
<g>
</g>
</svg>
