<svg xmlns="http://www.w3.org/2000/svg" viewBox="0 0 259 186">
  <defs>
    <style>
      .cls-1 {
        fill: #8698b7;
      }

      .cls-2 {
        fill: #375688;
      }
    </style>
  </defs>
  <g id="Group_2" data-name="Group 2" transform="translate(-20 -57)">
    <rect id="Rectangle_1" data-name="Rectangle 1" class="cls-1" width="259" height="186" transform="translate(20 57)"/>
    <g id="photo-camera" transform="translate(107.717 60.674)">
      <g id="Group_1" data-name="Group 1" transform="translate(0 56.439)">
        <path id="Path_1" data-name="Path 1" class="cls-2" d="M78.774,66.051a1.242,1.242,0,0,0,.132-.527,1.833,1.833,0,0,0-1.973-1.843h-4.6a1.939,1.939,0,0,0-1.973,1.975c0,.263.066,0,.132.658h-9.4l-2.893-5.925a7.647,7.647,0,0,0-6.247-3.95H32.22a7.556,7.556,0,0,0-6.247,3.95L23.08,66.314h-2.7V63.352c0-.4-.263-.329-.658-.329H6.575c-.395,0-.658-.066-.658.329v2.633A5.9,5.9,0,0,0,0,71.91v44.768a6.185,6.185,0,0,0,5.918,6.254h72.33a6.185,6.185,0,0,0,5.918-6.254V71.911A5.926,5.926,0,0,0,78.774,66.051ZM31.562,62.43a.622.622,0,0,1,.658-.658H51.946a.622.622,0,0,1,.658.658v2.633a.622.622,0,0,1-.658.658H32.22a.622.622,0,0,1-.658-.658V62.43ZM9.206,79.218a3.95,3.95,0,1,1,3.945-3.95A3.959,3.959,0,0,1,9.206,79.218Zm5.26,3.292a1.975,1.975,0,1,1,1.973-1.975A1.939,1.939,0,0,1,14.466,82.51ZM42.083,117.4A23.043,23.043,0,1,1,65.1,94.36,23.054,23.054,0,0,1,42.083,117.4Z" transform="translate(0 -56.439)"/>
        <path id="Path_2" data-name="Path 2" class="cls-2" d="M169.611,180.912a18.434,18.434,0,1,0,18.411,18.434A18.477,18.477,0,0,0,169.611,180.912Zm0,28.309a9.875,9.875,0,1,1,9.863-9.875A9.856,9.856,0,0,1,169.611,209.221Z" transform="translate(-127.528 -161.425)"/>
      </g>
    </g>
  </g>
</svg>
