<svg xmlns="http://www.w3.org/2000/svg" viewBox="0 0 199.157 170.288">
  <defs>
    <style>
      .cls-1 {
        fill: #fff;
      }
    </style>
  </defs>
  <g id="Group_2" transform="translate(-50.589 -69.695)">
    <g id="teacher-and-open-class-door" transform="translate(50.153 69.695)">
      <path id="Path_1"  class="cls-1" d="M65.008,0,44.762,6.28H.436V157.124H8.66V14.5h9.576l-6.28,1.949v140.67l53.058,13.164V14.5H88.485V157.124h8.23V6.28h-31.7L65.008,0ZM52.581,102.693c-2.67,0-4.833-2.628-4.833-5.864s2.163-5.864,4.833-5.864,4.833,2.617,4.833,5.864C57.409,100.06,55.251,102.693,52.581,102.693Z"/>
      <g id="tyrannosaurus-rex-dinosaur-silhouette" transform="translate(11.585 -95.041)">
        <g id="Group_1"  transform="translate(-0.009 178.504)">
          <path id="Path_2" class="cls-1" d="M187.522,203.254c-.93-2.5-2.023-4.855-4.721-5.672-.12-.037-.211-.174-.33-.228a3.247,3.247,0,0,0-1.064-.422c-.853-.035-1.716.131-2.562.054-1.086-.1-2.163-.357-3.241-.552-.779-.14-1.554-.311-2.334-.43a28.69,28.69,0,0,0-3.64-.463,3.022,3.022,0,0,1-1.8-.425.738.738,0,0,1-.326-.991,7.58,7.58,0,0,0,.181-1.462l-.2-.057a3.777,3.777,0,0,1-.612.954c-.286.242-.758.529-1.036.432a2.414,2.414,0,0,1-1.755-2.262,3.687,3.687,0,0,0-.384-1.015c-.206.159-.277.263-.276.368.022,1.5-.483,1.825-1.832,1.8-.2,0-.4.014-.6.017a1.475,1.475,0,0,1-1.389-1.216,8.963,8.963,0,0,0-.6-1.355l-.182.1a8.881,8.881,0,0,1,.05,1.409,1.589,1.589,0,0,1-.407.972,8.78,8.78,0,0,1-1.481.814q-.273-1.023-.545-2.038l-.207.02a11.429,11.429,0,0,0-.23,1.578,1.438,1.438,0,0,1-.784,1.414c-.692.358-1.368.762-2.082,1.055a.951.951,0,0,1-.776-.248,15.55,15.55,0,0,1-1.165-1.2l-.165.1c.123.563.253,1.124.36,1.69.032.164.04.471-.021.5a10.137,10.137,0,0,1-2.153.772c-.29.048-.664-.423-.989-.675a6.166,6.166,0,0,1-.463-.444l-.151.078c.044.255.083.511.129.766.1.575-.128.882-.666.906a2.359,2.359,0,0,1-2.223-.757c-.31.3-.56.743-.79.73a9.183,9.183,0,0,1-2.6-.4c-1.391-.5-2.716-1.206-4.091-1.759-.886-.355-1.534-.793-1.229-1.966.008-.03-.041-.076-.022-.045a12.435,12.435,0,0,1-1.719.352,1.755,1.755,0,0,1-1.669-2.394,2.008,2.008,0,0,0,.161-.463,2.654,2.654,0,0,0-.173-1.856,3.884,3.884,0,0,0-.344.746c-.7,1.543-1.489,2-2.942,1.232a2.334,2.334,0,0,1-.986-2.1,8.253,8.253,0,0,0-.141-1.434h-.252c-.1.224-.194.449-.294.671a1.959,1.959,0,0,1-2.159,1.2c-.915-.249-1.488-.619-1.522-2.04a2.853,2.853,0,0,0-.2-.7c-.057-.007-.114-.013-.17-.018a1.975,1.975,0,0,1-2.227,1.767c-1.134-.1-1.709-.938-2.151-1.955a2.062,2.062,0,0,1-2.558.924,3.356,3.356,0,0,0-1.318-.378c-.676-.028-1.355.1-2.034.127a25.5,25.5,0,0,1-6.618-.759c-4.563-1-9.122-2.027-13.708-2.892a27.892,27.892,0,0,0-5.266-.3c-1.179,0-1.469-.419-1.825-1.394a7.527,7.527,0,0,0-.853-1.372l-.23.119c0,.444.016.89-.008,1.333a.8.8,0,0,1-.178.5,1.792,1.792,0,0,1-2.969-1.04,3.115,3.115,0,0,0-1.541-1.979c-.055.094-.1.131-.1.173q-.033.815-.06,1.631c-.018.6-.908,1.406-1.452,1.277-.124-.03-.255-.214-.309-.358-.326-.869-.594-1.764-.956-2.615a2.045,2.045,0,0,0-1.12-1.193,19.735,19.735,0,0,1-.032,2.566c-.058.423-.445.794-.684,1.189-.271-.233-.543-.463-.808-.7-.045-.041-.046-.133-.084-.188-.349-.484-.7-.964-1.052-1.447l-.2.109a2.31,2.31,0,0,1-.1.876,5.239,5.239,0,0,1-1.2,1.608c-.387.282-.979-.4-1.215-1.264a1.506,1.506,0,0,1-.063-.2c-.083-.79-.681-1.132-1.154-1.594a2.219,2.219,0,0,0,.024.514,3.5,3.5,0,0,1-.405,2.445c-.29.395-.574.412-.854.027-.16-.221-.261-.488-.406-.723-.259-.422-.531-.834-.8-1.25l-.17.062a6.3,6.3,0,0,0-.067,1.1c.095.878-.5,1.2-1.046,1.52-.4.237-.782.078-.981-.395-.117-.279-.169-.593-.308-.856-.265-.505-.572-.987-.861-1.478a5.717,5.717,0,0,0-.112,1.507,1.449,1.449,0,0,1-.854,1.462c-.548.171-.978-.17-1.332-.859-.339-.658-.79-1.25-1.191-1.871l-.214.1c0,.413-.03.831.008,1.24a1.119,1.119,0,0,1-.588,1.227c-.482.225-.844-.153-1.148-.488a2.32,2.32,0,0,1-.256-.627c-.185-.426-.378-.849-.581-1.3-.145.126-.2.15-.207.184-.054.348-.1.7-.148,1.049-.082.607-.584,1.2-1.078,1.2-.589,0-.849-.444-1.077-.961a5.338,5.338,0,0,0-.6-.872.9.9,0,0,0-.164.583,1.037,1.037,0,0,1-.677,1.278,19.948,19.948,0,0,1-2.374.416c-.429.068-.68-.147-.89-.553a7.868,7.868,0,0,0-.858-1.094c-.049.367-.071.478-.076.59-.045.98-.121,1.057-1.064,1.063a3.373,3.373,0,0,0-.4,0c-.467.055-.72-.127-.853-.648a3.175,3.175,0,0,0-.569-.873l-.185.108a3.3,3.3,0,0,1-.057.756c-.069.227-.22.569-.373.593a5.392,5.392,0,0,1-1.579.028c-.2-.028-.347-.38-.525-.575s-.359-.374-.643-.666c-.025.566-.042.955-.062,1.393-.478.116-.941.252-1.414.337-.943.17-1.945.583-2.622-.606-.036-.064-.137-.084-.275-.16-.032.452-.058.835-.086,1.243a10.027,10.027,0,0,0-1.061.214c-.735.228-1.407.284-1.886-.529-.049-.084-.193-.1-.338-.176.257,1.032.2,1.138-.769,1.232-.745.071-1.546.332-2.14-.5.062.232.123.464.2.767-.589.168-1.147.287-1.678.49a1.221,1.221,0,0,1-1.4-.19c-.018-.017-.07.007-.126.014.03.18.061.354.1.558-.8.225-1.574.4-2.318.672a1.3,1.3,0,0,1-1.567-.276c-.036-.038-.11-.035-.239-.072.1.215.177.362.261.535-.17.068-.292.12-.415.166a55.584,55.584,0,0,0-11.47,5.365,36.386,36.386,0,0,0-8.584,7.616,20.834,20.834,0,0,0-3.052,4.595A25.906,25.906,0,0,0,0,214.666a33.728,33.728,0,0,0,1.356,9.624,9.965,9.965,0,0,0,.659,1.515l.231-.074c.022-.483.073-.965.062-1.445-.082-3.631-.463-7.269.457-10.862a13.271,13.271,0,0,1,2.24-5.15,21.746,21.746,0,0,1,6.911-5.142,23.349,23.349,0,0,1,6.794-2.206c2.052-.4,4.119-.763,6.193-.977,2.04-.211,4.1-.239,6.147-.3a28.684,28.684,0,0,1,4.036.037,58.6,58.6,0,0,0,7.956.8,4.18,4.18,0,0,1,1.378.118c2.288.747,4.564,1.49,6.913,2.04a31.7,31.7,0,0,1,7.94,3.215c1.781.976,3.649,1.767,5.455,2.691a15.026,15.026,0,0,1,5.028,3.835,7.147,7.147,0,0,0,2.491,2.245c-1.273,1.433-2.571,2.849-3.821,4.313a9.548,9.548,0,0,1-3.229,2.283c-.639.314-1.253.687-1.9.983a3.548,3.548,0,0,1-1.286.4,5.039,5.039,0,0,0-2.944.863c-.885.653-1.732,1.36-2.6,2.043a4.3,4.3,0,0,0-1.481,2.279c-.84,2.975-1.661,5.956-2.535,8.919a14.824,14.824,0,0,1-2.738,5.369,5.117,5.117,0,0,0-.908,3.785,3.864,3.864,0,0,0,.333,1.494c.99,1.979,1.991,3.955,3.077,5.874.825,1.458,1.925,2.575,3.677,2.629a13.386,13.386,0,0,1,1.69.3c.484.079,1.01.258,1.216-.471l6.4.465a3.063,3.063,0,0,0-2.169-2.569,2.855,2.855,0,0,1-.988-.429c-.255-.149-.448-.46-.712-.545-.67-.216-1.38-.295-2.045-.521-1.127-.382-1.37-.831-1.271-2.1a20.884,20.884,0,0,0-.292-5.713,1.612,1.612,0,0,1,.005-.471,19.1,19.1,0,0,0,.284-2.706,7.687,7.687,0,0,1,.693-3.165,18.7,18.7,0,0,1,1.2-2.19,19.077,19.077,0,0,1,1.575-2.7,12.784,12.784,0,0,1,9.933-5.055,58.5,58.5,0,0,0,10.662-.976c1.669-.359,3.43-.41,4.919-1.455.717-.5,1.333-.269,2.082,0,3.542,1.277,7.015,2.839,10.9,3.281-.416.435-.775.872-1.191,1.232a6.183,6.183,0,0,0-2.135,3.074c-.255.951-.437,1.927-.725,2.865a5.2,5.2,0,0,0,.817,4.782c1.073,1.53,2.086,3.11,3.1,4.691a8.213,8.213,0,0,1,1.472,3.669c.069.752.054,1.519.189,2.257a9.292,9.292,0,0,0,.6,1.778.5.5,0,0,0,.42.215c.086,0,.218-.214.239-.347a10.424,10.424,0,0,0,.087-1.056c.038-.651.432-1.174.911-1.182-.17.415-.354.817-.5,1.232a2.311,2.311,0,0,0,.51,2.3,6.726,6.726,0,0,0,4.28,1.629c2.235.228,4.5.113,6.753.146.721.01,1.442.038,2.161.036.135,0,.369-.082.387-.168.1-.477.446-.412.732-.382,1.058.114,2.113.26,3.2.4a.307.307,0,0,0,0-.17,3.789,3.789,0,0,0-2.733-2.419,1.732,1.732,0,0,1-.821-.388,2.2,2.2,0,0,0-2.273-.511,3.27,3.27,0,0,1-3.271-.813c-.49-.5-.972-1.006-1.463-1.5a24.512,24.512,0,0,1-1.825-1.843,9.428,9.428,0,0,0-2.658-2.6,1.165,1.165,0,0,1-.438-.505c-.952-2-1.868-4.011-2.837-6a3.7,3.7,0,0,1-.2-2.8,7.48,7.48,0,0,1,3.565-4.769,22.172,22.172,0,0,0,6.315-4.979.779.779,0,0,1,.618-.115c1.543.235,3.076.573,4.626.722,1.226.118,2.472,0,3.709.018a.811.811,0,0,1,.6.276c.388.571.708,1.195,1.071,1.785a4.059,4.059,0,0,1,.631,3.533c.411.112.859.393,1.1.256s.342-.684.395-1.067a10.632,10.632,0,0,0,.015-1.437.735.735,0,0,1,.486.337,3.085,3.085,0,0,1,.2.442c.157-.144.4-.261.454-.44a1.115,1.115,0,0,0-.6-1.273,7.156,7.156,0,0,1-1.224-.949,1.627,1.627,0,0,1-.319-1c0-.108.5-.325.762-.307,1.308.092,2.614.245,3.768.361-.086.934-.127,1.737-.241,2.528-.105.726-.407,1.383-1.237,1.471a6.131,6.131,0,0,0-.943.253c.009.078.02.156.029.234a9.84,9.84,0,0,1,1.161.116c.156.033.4.238.395.354a.755.755,0,0,1-.294.562c-.751.374-1.528.688-2.292,1.031a4.286,4.286,0,0,0-.479.323,5.741,5.741,0,0,0,1.739.526,2.989,2.989,0,0,0,3.035-3.491,1.988,1.988,0,0,1,.088-.885c.2-.5.491-.966.77-1.494a3.29,3.29,0,0,0,3.869-.9,19.688,19.688,0,0,0,1.809-2.071c1.048-1.355,2.052-2.751,3.08-4.124a5.524,5.524,0,0,1,.868-1.059,13.266,13.266,0,0,1,5.853-2.528.884.884,0,0,1,.316.038,30.483,30.483,0,0,0,3.232.614c1.977.167,3.965.232,5.949.275a1.164,1.164,0,0,1,1.13.728,7.8,7.8,0,0,0,1.371,2.054,11.3,11.3,0,0,0,4.621,2.5,17.212,17.212,0,0,1,7.384,3.766c.8.743,1.686,1.373,2.547,2.034a2.5,2.5,0,0,0,2.476.653,30.507,30.507,0,0,0,3.709-2.112.907.907,0,0,0,.3-.759,2.534,2.534,0,0,1,.155-1.337,2.357,2.357,0,0,0-.007-.989c-.032-.18-.268-.313-.318-.5a6.7,6.7,0,0,1-.107-1.03l-.586,1.256c-.07-.36-.115-.595-.18-.932-.233.355-.405.62-.578.886-.029-.052-.058-.106-.086-.159q.1-1.509.209-3.019l-.146-.022q-.246.609-.489,1.217l-.1-.033v-.858l-.964,1.277-.155-.134a2.971,2.971,0,0,0,.618-2.871c-.837,1.819-1.02,2.014-1.547,1.718.218-.535.416-1.074.659-1.591a1.745,1.745,0,0,1,.511-.727.653.653,0,0,0,.255-1.018,7.376,7.376,0,0,1-1.549-.165,2.957,2.957,0,0,1-1.247-.756,3.335,3.335,0,0,1-.546-3.06,6.288,6.288,0,0,1,1.615-3.765,14.718,14.718,0,0,0,1.643-2,6.707,6.707,0,0,0,.546-1.107c1.154-.036.656,1.064,1.06,1.768.241-.514.409-.87.618-1.312l1.418.4c-.314.6-.561,1.08-.809,1.557l.092.152,1.5-.917c-.041.572-.079,1.083-.116,1.6l.16.089,1.215-1.886.144.068c-.168.716-.334,1.433-.516,2.211,1.073-.559,1.106-1.787,1.637-2.637l.221.068c.088.457.178.913.267,1.37l.223.031q.192-.864.385-1.728l.155.013c-.044.678-.087,1.357-.135,2.106a3.927,3.927,0,0,0,1.143-2.7c.1.222.2.444.3.672.062-.047.124-.068.129-.1.176-.944,1.179-1.464,1.133-2.531,0-.1.129-.237.227-.32a1.917,1.917,0,0,0,.7-2.21A12.781,12.781,0,0,0,187.522,203.254Z" transform="translate(0.009 -178.504)"/>
        </g>
      </g>
    </g>
  </g>
</svg>
